<svg xmlns="http://www.w3.org/2000/svg" viewBox="0 0 800 520" width="800" height="520">
  <defs>
    <style>
      .ui { font-family: system-ui, -apple-system, 'Segoe UI', Roboto, Helvetica, Arial, sans-serif; }
      .mono { font-family: 'Courier New', Courier, 'Liberation Mono', monospace; }
    </style>
    <linearGradient id="bg" x1="0%" y1="0%" x2="100%" y2="100%">
      <stop offset="0%" style="stop-color:#1e2837"/>
      <stop offset="100%" style="stop-color:#0a0f1e"/>
    </linearGradient>
    <linearGradient id="gold" x1="0%" y1="0%" x2="100%" y2="0%">
      <stop offset="0%" style="stop-color:#f59e0b"/>
      <stop offset="100%" style="stop-color:#d97706"/>
    </linearGradient>
  </defs>
  <rect width="800" height="520" fill="url(#bg)" rx="16"/>
  <rect x="280" y="40" width="240" height="440" rx="24" fill="#2d3a4f" stroke="#4a5568" stroke-width="2"/>
  <rect x="292" y="56" width="216" height="408" rx="8" fill="#0d1117"/>
  <rect x="300" y="68" width="200" height="28" rx="6" fill="#1e2837"/>
  <text x="400" y="87" class="ui" font-size="11" fill="#94a3b8" text-anchor="middle" font-weight="600">Confirm Transfer</text>
  <rect x="308" y="108" width="184" height="56" rx="8" fill="#1a2744"/>
  <text x="400" y="132" class="mono" font-size="20" fill="#ffffff" text-anchor="middle" font-weight="800">50.00 USDT</text>
  <text x="400" y="152" class="ui" font-size="11" fill="#94a3b8" text-anchor="middle">≈ KSh 7,250.00</text>
  <text x="400" y="180" class="ui" font-size="9" fill="#059669" text-anchor="middle">● Rate locked: 1 USDT = KSh 145.00</text>
  <line x1="308" y1="195" x2="492" y2="195" stroke="#2d3a4f" stroke-width="1"/>
  <text x="400" y="216" class="ui" font-size="10" fill="#94a3b8" text-anchor="middle">TO</text>
  <text x="400" y="234" class="ui" font-size="11" fill="#cbd5e1" text-anchor="middle" font-weight="600">Sarah W.</text>
  <text x="400" y="250" class="mono" font-size="8" fill="#64748b" text-anchor="middle">0xa1b2...c3d4</text>
  <text x="400" y="276" class="ui" font-size="9" fill="#64748b" text-anchor="middle">Network fee: 0.50 USDT (≈ KSh 72.50)</text>
  <line x1="308" y1="290" x2="492" y2="290" stroke="#2d3a4f" stroke-width="1"/>
  <rect x="320" y="310" width="160" height="36" rx="18" fill="#059669" opacity="0.15"/>
  <text x="400" y="333" class="ui" font-size="10" fill="#059669" text-anchor="middle" font-weight="700">AUTHENTICATOR CONFIRMATION</text>
  <rect x="320" y="360" width="160" height="40" rx="10" fill="url(#gold)"/>
  <text x="400" y="385" class="ui" font-size="13" fill="#ffffff" text-anchor="middle" font-weight="800">Confirm Payment</text>
  <text x="400" y="426" class="ui" font-size="10" fill="#64748b" text-anchor="middle">Cancel</text>
  <rect x="60" y="200" width="160" height="120" rx="10" fill="#fef3c7" stroke="#f59e0b" stroke-width="1"/>
  <text x="140" y="240" class="ui" font-size="30" fill="#f59e0b" text-anchor="middle">📱</text>
  <text x="140" y="270" class="ui" font-size="12" fill="#1a2744" text-anchor="middle" font-weight="700">In-App</text>
  <text x="140" y="290" class="ui" font-size="12" fill="#1a2744" text-anchor="middle" font-weight="700">Authenticator</text>
  <rect x="580" y="210" width="140" height="100" rx="8" fill="rgba(5,150,105,0.1)" stroke="#059669" stroke-width="1"/>
  <text x="650" y="248" class="ui" font-size="11" fill="#059669" text-anchor="middle" font-weight="700">No SMS</text>
  <text x="650" y="268" class="ui" font-size="11" fill="#059669" text-anchor="middle" font-weight="700">No Biometric</text>
  <text x="650" y="288" class="ui" font-size="11" fill="#059669" text-anchor="middle" font-weight="700">No OTP</text>
</svg>
